<?xml version="1.0" encoding="UTF-8"?>
<svg xmlns="http://www.w3.org/2000/svg" xmlns:xlink="http://www.w3.org/1999/xlink" viewBox="0 0 3863.31 2389.13">
  <defs>
    <style>
      .cls-1 {
        fill: #767ba3;
      }

      .cls-2 {
        fill: url(#linear-gradient);
      }
    </style>
    <linearGradient id="linear-gradient" x1="1741.22" y1="2644.94" x2="2149.95" y2="-238.48" gradientUnits="userSpaceOnUse">
      <stop offset="0" stop-color="#f7ebf4"/>
      <stop offset="1" stop-color="#627bbc"/>
    </linearGradient>
  </defs>
  <g id="_2" data-name="2">
    <path class="cls-2" d="M3862.81,714.75c-149.96-56.72-300.46-119.94-347.51-150.57-60.62-39.47-135.98,12.31-181.79,24.65-45.81,12.34-277.95,44.33-277.95,44.33,0,0-169.38,73.83-212.1,103.5-42.72,29.68-358.97,113.42-358.97,113.42,0,0-439.48-74.01-545.42-108.5-105.94-34.49-166.6-4.92-166.6-4.92l-131.94,54.21-105.76-39.41s-604.27,98.06-718.74,110.64c-114.46,12.57-639.7-554.18-690.28-593.64C78.66,231.7,9.79,216.35,.5,214.4V2388.63H3862.81V714.75Z"/>
  </g>
  <g id="_3" data-name="3">
    <g>
      <path class="cls-1" d="M3862.81,1231.39c-1.45,1.39-2.77,2.65-4.17,3.99-1.81-4.41-3.46-8.43-5.06-12.32-3.25,2.57-5.9,4.67-8.81,6.96-2.75-4.52-5.11-8.42-7.48-12.32-.57,.16-1.14,.32-1.71,.48-.47,2.22-.94,4.44-1.51,7.14-1.49-1.2-2.71-2.19-3.97-3.2-1.26,.9-2.45,1.76-4.56,3.28-.7-3.4-1.23-5.96-1.85-8.92-4.94,1.49-9.84,2.97-16.09,4.86,.77-3.06,1.07-4.27,1.36-5.41-4.55-2.11-8.54,4.68-12.86,1.14,3.59-2.61,6.7-4.87,9.81-7.14-.42-.51-.83-1.02-1.25-1.52-2.34,.41-4.68,.82-7.2,1.27-.31-1.39-.61-2.76-1.2-5.47-1.65,2.8-2.59,4.4-3.46,5.89-2.83-3.78-5.59-7.46-8.54-11.4-2.9,1.75-4.53,2.73-6.58,3.97-.78-1.15-1.56-2.31-3.06-4.54-.51,2.78-.81,4.45-1.22,6.71-1.88-2.01-3.08-3.7-4.75-4.94-1.44-1.07-3.53-1.48-5.11-2.45-1.12-.69-1.87-1.82-3.01-2.99-.76,1.04-1.66,2.27-2.59,3.54-1.72-3.22-3.36-6.29-5.2-9.75-2.24,.93-3.95,2.09-5.78,2.27-2.22,.22-6.05,.21-6.58-.75-3.93-7.03-10.36-6.13-17.21-4.66-1.06,.23-2.17,.25-3.67-.14,5.46-2.86,13.62-3.21,13.57-11.11-3.27-.73-6.79-1.52-11.32-2.54,2.5-1.43,4.04-2.31,6.81-3.88-3.4-.15-5.41-.24-7.99-.36,2.84-3.23,5.31-6.04,8.58-9.76-8.94,.81-11.99,6.03-16.6,10.04,.44-1.27,.88-2.54,1.37-3.95-1.57-.3-3.08-.59-5.26-1.02,2.43-1.47,4.34-2.64,7.3-4.43-3.13-.84-5.32-1.43-6.76-1.82-2.32-6.14-4.51-11.95-6.82-18.06-.75,.47-2.48,1.56-4.46,2.8-.68-1.02-1.4-2.08-2.78-4.15-.5,2.44-.81,3.91-1.11,5.39-.4,.09-.8,.18-1.2,.27-.72-1.94-1.44-3.87-2.19-5.88-.98,.23-2.24,.53-4.09,.97,.2-1.89,.37-3.49,.67-6.38-4.06,1.98-7.38,3.6-10.97,5.36-8.49-2.54-17.51-5.59-27.92-2.87-.83-1.09-2.31-3.05-3.8-5.01,1.31,7.46-8.4,2.41-9.5,6.46-5.12-1.16-10.25-2.32-16.65-3.77,2.12,3.46,3.34,7.56,6.4,9.98,5.26,4.15,3.57,8.03,.82,12.41,.09-.84,.18-1.67,.35-3.3-2.29,.81-4.18,1.48-6.48,2.3v-5.67c-4.29,1.1-7.98,2.05-11.98,3.08-1.05-2.12-2.52-5.1-3.99-8.07-.56,.07-1.12,.14-1.67,.21-.5,1.71-1,3.43-1.5,5.14q-10.53-.07-14.94-2.35c3.39-1.77,7.05-3.68,10.7-5.59-.34-.61-.67-1.22-1.01-1.83-2.31,.37-4.61,.75-6.98,1.13-.12-1.3-.24-2.57-.36-3.84-.7,.05-1.34-.02-1.41,.12-5.85,11.8-5.81,12.33,.95,15.95-.43,1.93-.86,3.84-1.39,6.23-2.06-.77-4.02-1.49-6.61-2.46,1.71-1.08,2.86-1.8,3.12-1.96-1.15-3.7-2.15-6.91-3.15-10.12-.51-.02-1.02-.05-1.53-.07-.52,2.62-1.03,5.24-1.61,8.19-4.05,.82-8.5,4.6-12.47-1.29-.88,1.62-1.61,2.96-2.5,4.59-1.89-3.06-3.56-5.78-4.84-7.86-4.75,3.54-8.97,6.68-13.3,9.91-2.74-8.11-8.95-4.1-14.11-3.04-.74-3.25-1.44-6.37-2.15-9.49-.62,.02-1.23,.05-1.85,.07-.7,1.75-1.41,3.49-2.34,5.8-6.69-5.76-12.26-2.32-17.63,2.29q5.45-8.31,2.08-12.84c-2.75,2.07-5.42,4.07-8.76,6.58-3.61,1.04-8.47,2.43-13.68,3.93,1.26,2.15,2.35,4.02,3.66,6.26-1.47-.43-2.6-.75-5.01-1.45,.86,3.06,1.53,5.46,2.43,8.66-.77,.62-2.31,1.87-4.32,3.49-.43-2.28-.75-3.95-.75-3.94-6.09-.44-11.4-.82-16.98-1.22,.76,1.54,1.53,3.1,2.45,4.94-1.66,.75-3.41,1.55-5.36,2.44,.29-4.6,.56-8.95,.91-14.54-5.55,2.22-11.09,4.44-16.63,6.66-.25-.55-.5-1.09-.75-1.64,1.41-.78,2.81-1.56,4.22-2.34-.08-.36-.16-.72-.24-1.08h-11.27c2.69,1.76,3.95,2.6,4.9,3.22-1.36,2.99-2.69,5.91-3.66,8.02,2.31,1.4,3.7,2.24,5.1,3.09-.28,.43-.55,.87-.83,1.3-1.69-.21-3.39-.42-3.98-.49-2.11-4.06-3.86-7.45-5.62-10.83,1.23-.13,2.87-.31,4.5-.49-4.48-2.12-9.12-5.71-13.45,.37,1.15-2.8,2.3-5.61,3.51-8.56-2.11-.95-5.15-2.31-8.19-3.67-.03-.79-.06-1.57-.09-2.36-4.15,2.28-8.3,4.55-12.45,6.83-.3-.35-.61-.7-.91-1.05,.83-.89,1.67-1.77,3.05-3.24h-10.77c2.95,1.72,4.12,2.4,5.61,3.27-1.06,1.34-2.12,2.68-3.31,4.2-1.24-1.45-2.29-2.67-4.58-5.35,0,4.9-.15,8.27,.13,11.61,.06,.65,1.82,1.19,3.92,2.45-1.36,1.16-3.34,2.86-6.17,5.29,1.32-8.75-3.66-15.03-16.01-18.88,2.93,4.57,5.85,9.13,9.47,14.78-.08,.18-.87,1.89-2.13,4.63-.89-2.73-1.46-4.49-2.41-7.42-2.36,3.32-4.24,5.94-6.32,8.86-1.21-.73-2.39-1.44-4.01-2.41-.93,1.88-1.78,3.59-2.84,5.74-1.93-.56-3.78-1.1-6.11-1.77,.52-1.85,1-3.54,1.93-6.82-5.77,4.54-10.16,7.99-15.56,12.23-.15-2.75-.24-4.32-.33-5.95-5.1,.88-10.14,1.75-16.28,2.81,3.89-4.58,9.43-8.26,3.94-14.55-1.81,2.45-3.33,4.53-5.29,7.19-1.3-1.69-2.55-3.33-3.81-4.97-.61,.43-1.21,.86-1.82,1.29,1.77,2.66,3.54,5.32,5.51,8.29-5.26-2.26-10.75-4.63-16.25-6.99l-.81,1.37c3.27,5.48,6.55,10.97,10.33,17.3-.82,.48-2.67,1.55-4.52,2.62-.52-1.65-1.06-3.3-1.54-4.96-.88-2.98-1.72-5.97-3.03-10.53-1.64,2.68-2.12,4.43-3.41,5.38-3.26,2.4-2.59,8.21-10.12,7.43-1.94-.2-4.72,5.41-7.92,9.34-3.04-5.46-6.55-10.25-15.68-9.95,2.03,3.46,3.83,6.53,6.3,10.74-6.14-1.44-11.32-2.65-16.47-3.85,0,2.54,.05,4.97-.14,7.39-.01,.13-2.01,.15-2.02,.15-1.66-4.85-3.19-9.3-4.71-13.74-.97,.08-1.94,.17-2.91,.25-.62,3.04-1.25,6.08-1.96,9.55-10.3-6.65-18.25-.08-26.59,4.66-.48-.63-.97-1.26-1.45-1.89,1.77-.31,3.55-.62,5.32-.93-.4-.85-.8-1.71-1.2-2.56-5.56-.9-11.11-1.8-15.81-2.57-2.02,2.5-3.37,4.17-5.47,6.76,.13,.25,.62,1.15,1.37,2.54-4.38-1.98-7.69-3.47-12.4-5.6,.15-.6,.72-2.82,1.39-5.44-6.85-.56-12.86,.83-17.19,6.19v-5.97c-4.32,.69-8.4,1.33-12.47,1.98,.45-.43,.91-.87,1.36-1.3-3.19-2.76-6.37-5.52-9.56-8.28-.96,.61-1.93,1.22-2.89,1.84,.51,3.13,1.01,6.26,1.55,9.59h-11.2c5.19,2.41,8.59,3.99,12.91,6-7.99,2.9-13.89,.69-21-3.56,1.19,3.68,1.93,5.96,2.82,8.7-1.74,.49-3.52,.98-5.3,1.48,.55,2.2,1.1,4.41,1.66,6.61-.54,.13-1.08,.26-1.62,.39-.72-1.47-1.44-2.93-2.28-4.65-2.99,1.38-6.12,2.82-9.26,4.27-1.45-2.55-2.8-4.92-4.17-7.34-7.99,.76-15.24-2.39-18.27-8.3-1.65,1.78-3.15,3.4-4.57,4.93-5.46-2.99-10.7-5.86-15.94-8.73,.25-.54,.5-1.09,.75-1.63-1.31,.52-2.62,1.05-4.28,1.72v-7.56l-1.96-.26c-.78,3.34-1.55,6.67-2.48,10.66-1.15-2.96-2.1-5.42-2.96-7.63-4.55-.41,.26,7.33-8.3,2.49,2.54,2.75,3.34,3.61,4.14,4.48-.34,.25-.67,.7-.93,.67-4.73-.57-8.07-.22-9.39,4.92-.96,3.73-4.19,7.03-6.46,10.51-4.82-.24-9.66-.32-14.44-.84-1.1-.12-1.97-1.77-3.75-3.5-.36,2.63-.59,4.27-.83,6.04-2.07,.54-4.18,1.09-7.11,1.85,1.61,1.23,2.76,2.12,3.67,2.82-1.22,2.69-2.4,5.27-4.26,9.38-1.56-3.01-2.58-4.97-4.12-7.95-2.76,1.79-5.97,3.88-9.18,5.96,.32,.42,.64,.85,.96,1.27,2.33-.34,4.66-.68,6.98-1.03,.09,.75,.19,1.5,.28,2.25-4.2,.22-8.41,.45-14.21,.75,1.98-2.21,2.85-3.18,3.9-4.35-3.67-2.97-8.09-1-8.87,1.18-1.12,3.13-3.27,7.43,1.39,10.45-.36,.39-.71,.77-1.07,1.16-1.66-1.27-3.31-2.54-5.23-4.01-.66,.25-2.06,.8-2.25,.87-2.95-3.3-5.59-6.24-8.61-9.61-3.6,4.01-6.75,7.52-10.62,11.83-.92-2.41-1.46-3.84-2.19-5.75-2.64,2.44-4.8,4.44-7.27,6.72-.41-4.01-.74-7.27-1.08-10.52-1.01,0-2.02,0-3.03,0-.37,4.93-.74,9.85-1.11,14.78-1.01-6.52-5.19-5.94-10.89-3.58,1.68,.95,2.93,1.66,4.98,2.82-1.96,1.29-3.71,2.44-5.46,3.6-.83-2.21-1.65-4.41-3.14-8.39-1.49,2.33-2.53,3.96-4.22,6.61-1.3-2.16-2-3.35-2.71-4.53-.4,.21-.81,.43-1.21,.64,.1,1.37,.19,2.75,.33,4.66-3.47-1.47-6.51-2.76-8.98-3.8-1.44,1.91-2.48,3.29-3.52,4.67-.44-.22-.87-.44-1.31-.66,.18-1.23,.36-2.46,.54-3.69-.37-.16-.74-.32-1.12-.48-1.89,2.83-3.77,5.67-5.54,8.32-5.93-1.29-6.99-12.86-15.45-3.92-.92-1.36-1.65-2.44-3.16-4.67-.29,2.91-.45,4.52-.64,6.37-2.92-2.25-5.72-4.41-8.9-6.85-.69,2.33-1.12,3.79-1.55,5.24-2.09-.73-4.19-1.47-6.8-2.38-.51,.63-1.37,1.7-2.63,3.24-2.42-5.29-5.13-10.33-11.87-7.4-4.16,1.81-6.86,6.05-9.63,8.65-.33-3.44-.74-7.71-1.29-13.51-7.19,1.8-13.21,3.3-20.41,5.1-1.59-.58-4.94-1.8-9.47-3.45,.01,.16-.09-1.29-.23-3.51-3.26,1.63-5.92,2.96-8.93,4.47-.95-1.85-1.9-3.69-3.34-6.49-.86,2.01-1.38,3.21-2.14,4.98-4.85-2.36-9.51-4.62-14.17-6.89,1.1,2.9,2.21,5.81,3.26,8.56-6.93,1.22-13.25,2.4-19.62,3.37-.77,.12-1.77-.9-2.66-1.4-3.3,.23-6.62,.46-11.25,.78,.45,.04,.84,.08,1.31,.13-2.6,3.93-4.64,7.02-5.87,8.88-4.51-2.46-8.8-4.8-13.08-7.14-.54,.51-1.07,1.02-1.6,1.52,.93,2.27,1.87,4.54,3.06,7.44-1.81,.31-3.44,.58-5.07,.86-.36-1.71-.72-3.42-1.42-6.73-3.32,3.67-5.98,6.62-8.38,9.27v-5.43c-10.03,2.05-19.99,4.09-30.22,6.18,1.84,.74,3.41,1.37,7.1,2.86-4.62,1.59-7.58,2.61-10.55,3.63-.24-.45-.48-.9-.72-1.35,.65-1.15,1.3-2.3,1.94-3.45-.3-.26-.6-.52-.9-.78-3.44,2.64-6.89,5.27-11.56,8.84v-5.63c-3.85,.55-7.35,1.05-11.23,1.6-.07-1.42-.15-2.82-.22-4.23-.38-.11-.75-.22-1.13-.34-1.79,3.6-3.59,7.19-5.78,11.6-1.99-2.76-3.34-4.62-4.56-6.3-3.01,.9-5.61,1.68-8.88,2.66,.66-2.24,1.05-3.6,1.85-6.32-2.53,2-3.87,3.06-5.49,4.34-.51-3.68-.95-6.92-1.4-10.16-.72,0-1.44,0-2.16,0-.57,3.09-1.14,6.18-1.98,10.71-3.17,.34-7.19,.78-12.15,1.31,1.42-3.83,2.4-6.48,3.38-9.12-.7-.31-1.4-.63-2.09-.94-2.41,3.33-4.83,6.65-7.66,10.57,.65-3.52,1.23-6.66,2.03-11.04-7.16,2.95-13.59,5.6-20.03,8.25,.21,.55,.42,1.09,.63,1.64-1.77-1.17-3.53-2.34-5.11-3.38,2.12-4.74,4.17-9.33,6.22-13.91-.59-.47-1.18-.93-1.77-1.4-4.26,3.07-9.48,5.58-12.54,9.35-3.6,4.44-5.33,9.98-7.92,15.14-8.31-3.04,.58-6.06-2.01-9.62-6.88,2.12-13.98,4.32-21.84,6.74-.32,2.85,3.67,7.67-3.54,11.16,.76-2.47,1.27-4.13,1.98-6.42-3.5,1.55-6.32,2.36-5.4-2.67-3.26,2.14-5.34,4.09-7.92,5.05-2.99,1.11-5.42,6.51-10.06,1.39-.5-.55-4.79,1.4-7.32,2.18l.23-.2c-4.48,3.11-8.95,6.21-14.45,10.03-.26-4.81-.46-8.58-.73-13.44-3.47,3.53-6.93,7.01-11.35,5.35-4.69-1.75-8.53-5.16-13.39-8.26-1.24,2.84-2.23,5.13-3.61,8.28-3.07-1.46-6.05-2.87-9.33-4.43,.71-1.28,1.88-3.4,3.05-5.51-.4-.27-.79-.55-1.19-.82-2.43,1.9-4.86,3.79-7.72,6.02-.93-2.86-1.64-5.03-2.65-8.15-1.37,1.52-2.14,2.37-3.12,3.45-.79-.92-1.5-1.75-1.33-1.54-2.37,2.09-4.83,4.26-7.29,6.42-.67-.43-1.34-.86-2.01-1.29-.12-1.43-.24-2.86-.38-4.52-5.22,.57-10.44,1.14-16.03,1.75,.66,2.07,1.58,4.95,2.5,7.85-4.46-2.97-8.96-5.96-13.46-8.96-.74,.72-1.48,1.45-2.22,2.17,3.64,2.87,7.29,5.74,10.81,8.52-1.33,2.47-2.97,5.55-5.05,9.43,.07,0-1.35,0-3.39,0,1.27-2.56,2.4-4.83,4.05-8.15-3.19,.91-5.57,1.59-7.87,2.24-1.98-3.9-4.03-7.93-6.44-12.67-1.87,2.18-3.15,3.68-4.98,5.83-1.26-2.7-2.36-5.04-3.58-7.65-1.14,.79-2.1,1.45-3.19,2.21-.66-3.18-1.28-6.15-1.98-9.54-5.46,2.79-10.19,6.99-17.65,5.47,1.65-2.94,3.04-5.42,4.44-7.9-.45-.3-.9-.6-1.35-.9-3.39,2.79-6.61,5.76-10.25,8.29-1.9,1.32-4.5,2.28-6.9,2.51-.68,.06-1.77-3.03-2.47-4.31-3.64-.35-7.55-.73-11.73-1.14,.74,2.83,1.64,6.24,2.53,9.65-.43,.11-.86,.22-1.29,.33-.93-1.56-1.86-3.13-2.79-4.69l-1.7-.23c-1.77,5.04-3.36,10.13-5.37,15.1-1.09,2.7-2.56,5.37-4.42,7.74-2.19,2.79-4.99,5.23-8.79,8.08,1.73-9.55-1.17-16.48-13.33-19.76,1.02,4.94,1.89,9.22,2.69,13.13-4.02-.21-8.06-.42-12.09-.63-.09,.46-.19,.92-.28,1.37,3.5,1.48,7.01,2.97,11.54,4.88-6.57,2.2-12.32,4.12-18.68,6.25-.67-.9-1.67-2.55-3-3.98-4.19-4.49-9.11-2.21-13.62-.64-3.13,1.09-5.72,5.45-9.04,.31-1.3,.68-2.59,1.36-4.47,2.35,2.73-7.37-.85-12.43-8.61-17.66-.62,5.75-1.14,10.5-1.68,15.49-3.86-3.88-8.82-5.64-14.92-3.86,0-.05,0-.1,.01-.15-2.76,2.14-7.19,3.92-7.92,6.48-1.52,5.27-5.49,5.8-10.91,6.16,.27-.92,.5-1.69,.87-2.93-5.65-.44-10.86,.11-14.36,4.2-3.41,3.99-7.47,5.17-12.82,3.55-1.75,2.33-3.31,4.77-5.31,6.93-1.06,1.14-2.86,1.78-4.84,2.95,.81-4.68,1.46-8.46,2.11-12.23-3.11,1.74-6.23,3.48-9.35,5.23-1.25-1.51-2.76-3.33-5.41-6.54,.42,4.24,.67,6.72,.96,9.66-5.42-2.92-10.09-5.44-15.29-8.25-1.01,4.46,6.84,7.5-1.2,10.78-1.91-2.05-3.94-4.23-6.43-6.9-1.34-.14-3.91-.41-6.95-.73,.48,2.45,.94,4.83,1.85,9.5-3.9-1.61-6.99-2.1-8.53-3.68-4.22-4.33-6.53-.62-10.18,1.87-1.67-3.57-3.13-6.67-4.87-10.38-1.53,2.3-2.83,4.26-4.39,6.6-1.34-1.25-2.57-2.39-4.02-3.74-2.31,6.12-4.46,11.82-6.97,18.49-1.78-3.99-3.12-6.99-5.21-11.67-1.83,3.84-2.88,6.06-3.93,8.27-6.57-1.38-13.11-2.76-19.69-4.15-.63,2.42-1.52,5.8-2.73,10.45-2.37-3.42-3.91-5.63-6-8.65-1.57,2.77-2.76,4.89-4.18,7.4-5.78-7.42-9.45,1.84-14.48,1.25-1.89-2.12-3.7-4.15-6.06-6.79-1.46,2.8-2.45,4.71-3.58,6.88-1.6-.75-3.09-1.46-2.97-1.4-2.34,1.69-3.89,2.8-5.44,3.92-1.59-1.95-3.17-3.9-4.76-5.84-.72,.34-1.43,.68-2.15,1.03-.78,2.99-1.55,5.99-2.22,8.56-3.67-2.64-7.26-5.24-10.86-7.83-.73,.54-1.46,1.08-2.19,1.62,1.28,2.04,2.57,4.09,3.61,5.76-2,1.2-4.05,2.42-6.11,3.65,.31,.54,.63,1.08,.94,1.62-2.6-.29-5.19-.57-8.48-.94,.84-1.5,1.59-2.84,3.08-5.51-6.21,3.06-10.96,5.39-16.54,8.13,.23-2.35,.39-3.92,.65-6.61-2.68,1.61-5,2.61-6.67,4.13-1.71,1.56-2.78,3.62-4.27,5.65-1.57-4.66-2.92-8.67-4.27-12.68-.85,.14-1.7,.29-2.55,.43-.31,2.63-.63,5.27-.94,7.87-1.94-.71-4.16-1.53-6.38-2.34-.2,.29-.4,.58-.6,.87,1.86,1.74,3.71,3.48,5.98,5.61q-10.1-.69-18.9,6.1c1.44-5.35,4.55-10.58-3.03-14.16-3.17,6.4,.53,11.5,4.12,18.04-8.71-4.81-15.35-12.05-25.42-6.41-.42-1.79-.85-3.67-1.29-5.55l-1.31,.09c-.9,4.9-1.79,9.79-2.91,15.91-2.29-2.56-3.58-3.99-5.14-5.73-3.41,2.73-5.74,8.12-11.5,3.2,1.43-1.07,2.84-2.13,5.77-4.32-4.52,.69-7.18,1.09-9.84,1.5l.22-.19c-2.1,1.04-4.2,2.08-7.62,3.78,.46-3.22,.66-4.61,.88-6.09-8.85,.37-10.01,6.79-12.72,11.03-2.19-3.18-4.3-6.26-6.42-9.33-.75,.32-1.49,.64-2.24,.97,.45,1.8,.89,3.6,1.42,5.72h-4.79c-.12,.4-.24,.8-.36,1.2,2.65,.7,5.29,1.41,8.5,2.26-4.07,.89-7.93,1.74-11.84,2.59-.75-1.59-1.5-3.18-2.61-5.53-2.68,5.31-5.78,6.14-10.24,1.67,1.21,1.9,2.43,3.8,3.65,5.71-1.08,.56-2.42,1.24-3.75,1.93,1.14,.47,2.72,.7,3.33,1.47,1.15,1.45,1.73,3.22,2.73,5.22,.75-.27,1.92-.7,3.67-1.34-.45,1.1-.59,2.01-.87,2.04-6.54,.78-12.01,3.76-17.94,5.81-16.45,5.68-32.3,12.38-48.38,18.68v4.66c.58,1.02,1.51,2,1.69,3.07,2.35,13.74,11.56,24.23,22.06,34.14,13.75,12.97,27.29,26.1,41.33,38.84,12.46,11.31,29.46,13.5,46.35,14.75,31.81,2.36,63.68,4.1,95.53,6.14,3.62,.23,7.23,.68,10.84,1.02h45.2c16.15-.72,32.31-1.38,48.46-2.17,172.41-8.43,345.03-4.65,517.56-6.56,87.85-.97,175.74-3.03,263.47-6.95,103.22-4.61,206.3-11.63,309.42-17.89,68.74-4.17,137.44-8.86,206.17-13.27,66.9-4.29,133.79-8.8,200.73-12.69,72.7-4.23,145.51-4.99,218.31-2.29,7.83,.29,15.66,.67,23.49,1.07v-216.11Zm-1908.29,133.18c-.5,.42-2.54-.11-3.6-.62-2.93-1.42-5.71-3.05-9.73-5.25,4.52-.37,9.33-.92,14.15-1.05,1.06-.03,3.23,1.81,3.1,2.04-1.02,1.76-2.29,3.51-3.92,4.88Zm321.28-60.04c-5.44-.88-10.88-1.76-16.58-2.68,.24-2.52,.5-5.21,.75-7.9,5.43,3.09,10.86,6.18,16.29,9.27-.15,.44-.31,.87-.46,1.31Zm91.45-10.55c-.31-.2-.63-.4-.94-.6,1.51-6.47,3.01-12.95,4.6-19.77,3,1.94,6.39,4.13,10.21,6.6-4.76,4.73-9.32,9.25-13.87,13.77Zm431.06-46.5c-.2-1.47-.4-2.94-.48-3.58-2.88-.96-5.35-1.77-7.61-2.52,4.3-1.54,8.03-3.4,12.05-4.13,2.66-.48,5.73,.66,8.77,2.04-9.31-2.32-10.65,2.91-12.72,8.19Zm316.12-28.67c-1.31-.36-2.62-.71-4.27-1.16-.95,1.86-1.83,3.57-3.19,6.22-.23-2.24-.36-3.58-.5-4.92-.56,.23-1.13,.46-1.69,.69-1.85-1.61-3.7-3.22-5.54-4.82,.37-.53,.73-1.07,1.1-1.6,4.89,1.37,9.79,2.74,14.68,4.11-.19,.5-.39,.99-.58,1.49Zm585.67-46.09c3.23,1.46,6.26,2.83,9.29,4.2-6.3,2.52-10.41,.2-9.29-4.2Z"/>
      <path class="cls-1" d="M2799.91,1226.05c-6.46,3.51-12.93,7.03-19.39,10.54,1.14-1.86,2.61-3.64,3.38-5.61,3.08-7.94,9.87-12.02,19.87-13.88-1.37,3.17-2.61,6.06-3.85,8.94Z"/>
      <path class="cls-1" d="M2385.16,1262.85c-3.23-7.42-2.42-13.69,4.11-19.09,3.85,6.97,2.96,11.25-4.11,19.09Z"/>
      <path class="cls-1" d="M3358.28,1158.3c-.81,4.8-1.63,9.6-2.45,14.4-.7-.09-1.39-.17-2.09-.26-2.78-5.28-2.5-10.15,2.34-14.42,.73,.09,1.46,.18,2.19,.28Z"/>
      <path class="cls-1" d="M1930.9,1343.69c2.71,3.86,5.43,7.72,8.14,11.58-.99,.53-1.98,1.06-2.97,1.59-2.92-3.8-5.84-7.61-8.75-11.41,1.19-.59,2.39-1.18,3.58-1.76Z"/>
      <path class="cls-1" d="M3811.19,1217.02c2.67-3.82,5.35-7.64,8.02-11.47,1.05,.53,2.1,1.06,3.15,1.59-2.67,3.86-5.34,7.72-8.01,11.59-1.05-.57-2.11-1.14-3.16-1.71Z"/>
      <path class="cls-1" d="M2214.96,1311.28c-2.78-.79-5.56-1.59-8.35-2.38,4.24-5.35,9.8-4.48,16.91-2.48-3.47,1.97-6.01,3.41-8.56,4.86Z"/>
      <path class="cls-1" d="M2018.17,1329.79c-1.73,4.12-3.46,8.24-5.19,12.36-.67-.2-1.34-.4-2-.6-1.85-5.18,.12-9.23,5.12-12.38,.69,.21,1.38,.42,2.07,.63Z"/>
      <path class="cls-1" d="M1917.8,1357.82c-.94-.67-2.81-1.69-2.67-1.97,1.75-3.49,3.8-6.88,5.77-10.29,1.12,.46,2.24,.93,3.36,1.39-2.23,3.68-4.45,7.37-6.68,11.06,0,0,.22-.19,.22-.19Z"/>
      <path class="cls-1" d="M2977.85,1229.69v-12.48c.92-.03,1.84-.07,2.76-.1,.27,4.22,.54,8.44,.81,12.65-1.19-.02-2.38-.05-3.57-.07Z"/>
      <path class="cls-1" d="M3054.62,1210.96c-3.11-.14-6.21-.27-9.32-.41-.09-.33-.18-.66-.27-.99,1.17-.54,2.35-1.08,3.52-1.62-.67-1.54-1.34-3.07-2.19-5,7,.19,7.69,4.07,8.07,8.17,0,0,.17-.15,.17-.15Z"/>
      <path class="cls-1" d="M2539.55,1273.93c-3.8-3.54-2.84-6.48,4.97-10.16-1.73,3.45-3.46,6.9-5.19,10.36,0,0,.22-.19,.22-.19Z"/>
      <path class="cls-1" d="M2695.66,1255.61c.77-3.43,1.54-6.86,2.3-10.3,1.03,.15,2.05,.29,3.08,.44-.67,3.5-1.33,7-2,10.51-1.13-.22-2.25-.43-3.38-.65Z"/>
      <path class="cls-1" d="M2673.93,1248.39c1.04,3.43,2.07,6.87,3.11,10.3-.94,.23-1.87,.46-2.81,.69-1.25-3.42-2.49-6.84-3.74-10.26,1.15-.25,2.3-.49,3.45-.74Z"/>
      <path class="cls-1" d="M2919.45,1233.26c.7,3.34,1.39,6.67,2.09,10.01-.99,.15-1.98,.31-2.97,.46-.76-3.33-1.53-6.65-2.29-9.98,1.06-.17,2.12-.33,3.17-.5Z"/>
      <path class="cls-1" d="M3580.26,1140.87c-1.5-3.14-3.01-6.28-4.51-9.42,.97-.34,1.94-.68,2.92-1.03,1.56,3.17,3.13,6.35,4.69,9.52-1.03,.31-2.06,.61-3.09,.92Z"/>
      <path class="cls-1" d="M3442.38,1152.49c-3.66,1.15-7.31,2.31-10.97,3.46-.36-.75-.71-1.5-1.07-2.25,3.59-1.32,7.19-2.64,10.78-3.95,.42,.91,.84,1.83,1.26,2.74Z"/>
    </g>
    <g>
      <path class="cls-1" d="M1987.33,1389.32c-5.75-2.38-10.97-5.67-17.44-6.83-.28-.05-.35-.97-.71-2.09,1.7,.74,2.83,1.23,3.55,1.54,1.16-1.93,1.88-3.67,3.14-5.05,.67-.74,2.26-.87,3.44-1.28-1.28-.76-2.56-1.53-3.59-2.14,1.37-1.83,2.73-3.66,4.09-5.49-4.81,4.21-7.83,3.19-10.09-2.25-1.29,2.27-2.17,3.82-3.04,5.36-3.83-1.08-7.61-2.14-11.6-3.26,3.27-.67,5.97-1.22,8.66-1.76-.09-.41-.17-.81-.26-1.22-1.62-.09-3.24-.19-4.78-.28,.69-2.08,1.28-3.85,1.87-5.62-.72-.36-1.44-.73-2.16-1.09-2.35,2.95-4.71,5.89-7.14,8.94-2.37-4.39-3.01-10.86-11.81-11.74,.1,1.5,.18,2.89,.39,6.13-3.27-1.88-5.28-3.04-7.3-4.21l.2,.2c-2.62-.56-5.25-1.12-9.7-2.06,2.75,2.35,4.07,3.49,5.42,4.64-6.14,4.58-8.03-.93-11.22-3.85-1.69,1.64-3.09,3-5.58,5.42-.63-6.17-1.14-11.11-1.64-16.04-.43-.06-.86-.11-1.3-.17-.59,1.85-1.17,3.7-1.73,5.46-9.6-6.2-16.79,.63-25.87,4.93,4.11-6.32,8.2-11.2,5.55-17.76-7.85,3.13-5.17,8.54-4.15,13.95q-8.24-7.28-18.37-7.17c2.43-1.99,4.42-3.62,6.41-5.25-.18-.3-.35-.6-.53-.9-2.28,.68-4.56,1.37-6.56,1.97-.1-2.62-.21-5.26-.31-7.91-.84-.19-1.67-.38-2.51-.58-1.67,3.92-3.33,7.84-5.27,12.4-1.32-2.11-2.22-4.23-3.81-5.88-1.54-1.61-3.78-2.74-6.33-4.5,.05,2.7,.08,4.28,.13,6.64-5.35-3.06-9.9-5.66-15.86-9.07,1.27,2.75,1.92,4.13,2.63,5.68-3.31,.17-5.93,.31-8.54,.45,.36-.52,.71-1.04,1.07-1.57-1.95-1.34-3.9-2.69-5.8-4,1.18-1.6,2.62-3.57,4.06-5.53-.69-.58-1.37-1.16-2.06-1.74-3.79,2.38-7.59,4.76-11.45,7.19-.46-2.61-1-5.64-1.53-8.67-.69-.38-1.38-.76-2.07-1.15l-5.21,5.56c-1.46-1.2-2.92-2.41-5.12-4.23,.13-.05-1.42,.57-3.07,1.22-.96-2.24-1.79-4.19-3.02-7.07-2.56,2.5-4.53,4.42-6.58,6.43-5.07,.3-7.99-9.15-14.35-2.08-1.21-2.58-2.24-4.77-3.58-7.63-2.33,2.9-4.04,5.01-6.68,8.28-.84-4.71-1.46-8.13-1.9-10.58-6.68,1.01-13.32,2-19.98,3.01-.87-2.27-1.75-4.54-3.26-8.48-2.46,4.55-4.03,7.47-6.13,11.34-1.98-6.8-3.67-12.61-5.49-18.85-1.55,1.26-2.87,2.33-4.31,3.5-1.37-2.43-2.51-4.45-3.85-6.84-2.03,3.6-3.73,6.61-5.68,10.08-3.44-2.69-5.46-6.53-10.01-2.45-1.66,1.49-4.78,1.79-8.8,3.18,1.28-4.6,1.93-6.95,2.6-9.37-3.06,.14-5.65,.27-7,.33-2.69,2.52-4.89,4.58-6.96,6.52-7.75-3.73,.32-6.31-.34-10.82-5.41,2.5-10.27,4.74-15.91,7.35,.53-2.92,.97-5.38,1.73-9.59-2.91,3.05-4.55,4.77-5.92,6.21-2.98-1.92-5.94-3.84-8.91-5.76,.35,3.8,.7,7.61,1.14,12.33-1.88-1.28-3.63-2.02-4.59-3.22-1.82-2.27-3.19-4.8-4.75-7.22-5.46,1.3-9.42-.11-12.51-4.29-3.16-4.28-8.32-5.13-14-5.02,.27,1.26,.43,2.04,.63,2.97-5.38-.67-9.3-1.43-10.4-6.77-.53-2.59-4.81-4.63-7.39-6.92,0,.05,0,.1,0,.15-5.94-2.13-11.04-.66-15.2,2.99-.14-5.01-.28-9.78-.44-15.55-8.16,4.77-12.14,9.62-10,17.13-1.8-1.09-3.04-1.85-4.27-2.6-3.72,4.94-5.96,.44-9-.83-4.38-1.83-9.1-4.39-13.64-.15-1.44,1.35-2.57,2.93-3.31,3.79-6.18-2.49-11.75-4.74-18.14-7.31,4.67-1.65,8.29-2.93,11.9-4.21-.06-.46-.11-.92-.17-1.39-4.04-.02-8.08-.04-12.11-.07,1.11-3.85,2.33-8.06,3.73-12.94-12.4,2.57-15.84,9.32-14.87,18.94-3.56-3.06-6.16-5.66-8.13-8.57-1.67-2.47-2.93-5.22-3.8-7.98-1.61-5.07-2.79-10.24-4.16-15.37-.57,.04-1.14,.09-1.72,.13-1.05,1.51-2.1,3.01-3.16,4.52-.42-.13-.84-.27-1.26-.4,1.16-3.35,2.33-6.7,3.29-9.48-4.2,.16-8.13,.32-11.79,.46-.8,1.24-2.14,4.26-2.81,4.16-2.38-.37-4.89-1.47-6.69-2.9-3.43-2.73-6.4-5.89-9.57-8.87-.47,.27-.95,.55-1.42,.82,1.19,2.56,2.39,5.11,3.8,8.14-7.57,1.09-11.95-3.38-17.18-6.48-.97,3.34-1.82,6.27-2.73,9.4-1.03-.82-1.94-1.54-3.01-2.39-1.42,2.53-2.7,4.8-4.18,7.43-1.66-2.25-2.82-3.81-4.51-6.1-2.78,4.59-5.15,8.5-7.43,12.27-2.24-.78-4.56-1.6-7.67-2.69,1.38,3.4,2.32,5.74,3.39,8.37-2.03-.12-3.44-.2-3.38-.19-1.77-3.99-3.16-7.15-4.29-9.7,3.74-2.57,7.6-5.22,11.47-7.87-.68-.77-1.36-1.53-2.05-2.3-4.73,2.73-9.46,5.46-14.14,8.16,1.15-2.84,2.3-5.66,3.12-7.69-5.53-.93-10.69-1.8-15.85-2.67-.27,1.65-.51,3.07-.74,4.49l-2.11,1.17c-2.28-2.3-4.56-4.6-6.76-6.83,.19-.19-.58,.59-1.44,1.46-.89-1.14-1.59-2.03-2.84-3.63-1.26,3.06-2.14,5.18-3.3,7.98-2.67-2.38-4.95-4.42-7.22-6.45-.42,.25-.83,.5-1.25,.75,1,2.18,2,4.36,2.6,5.67-3.4,1.37-6.48,2.61-9.66,3.88-1.12-3.22-1.93-5.57-2.94-8.47-5.1,2.81-9.2,5.98-14.01,7.47-4.54,1.4-7.72-2.27-10.9-5.99-.65,4.84-1.15,8.58-1.79,13.37-5.19-4.13-9.4-7.48-13.62-10.84l.21,.21c-2.47-.93-6.6-3.12-7.13-2.6-5.03,4.84-7.03-.68-9.92-1.97-2.5-1.11-4.43-3.18-7.5-5.5,.51,5.07-2.24,4.1-5.6,2.35,.52,2.33,.9,4.01,1.47,6.52-6.92-3.9-2.55-8.47-2.64-11.34-7.64-2.87-14.55-5.47-21.25-7.99-2.86,3.41,5.77,6.93-2.77,9.49-2.17-5.3-3.46-10.92-6.7-15.56-2.76-3.94-7.76-6.75-11.77-10.05-.63,.43-1.25,.86-1.88,1.29,1.68,4.69,3.36,9.39,5.1,14.24-1.65,.95-3.51,2.01-5.36,3.08,.25-.53,.51-1.06,.76-1.59-6.21-3.02-12.42-6.03-19.33-9.39,.45,4.41,.78,7.58,1.15,11.13-2.52-4.07-4.66-7.53-6.81-10.98-.72,.27-1.44,.54-2.16,.82,.77,2.7,1.54,5.4,2.65,9.3-4.91-.82-8.88-1.49-12.02-2.01-.48-4.57-.8-7.69-1.13-10.8-.72-.04-1.43-.08-2.15-.12-.7,3.21-1.4,6.42-2.2,10.06-1.51-1.37-2.76-2.5-5.13-4.65,.58,2.77,.86,4.14,1.34,6.42-3.19-1.17-5.72-2.09-8.65-3.16-1.34,1.6-2.84,3.38-5.04,6.02-1.84-4.52-3.34-8.21-4.85-11.9-.38,.09-.77,.18-1.15,.27-.18,1.4-.37,2.79-.56,4.21-3.83-.78-7.28-1.47-11.07-2.24-.12,1.5-.22,2.71-.45,5.61-4.37-3.83-7.6-6.66-10.83-9.49-.32,.24-.64,.49-.96,.73,.55,1.18,1.11,2.37,1.66,3.55-.27,.44-.55,.87-.82,1.31-2.88-1.19-5.75-2.38-10.23-4.23,3.8-1.27,5.42-1.81,7.31-2.44-10.04-2.67-19.81-5.28-29.66-7.9-.11,1.4-.31,3.83-.43,5.42-2.18-2.78-4.6-5.88-7.62-9.74-.96,3.26-1.46,4.94-1.95,6.63-1.6-.37-3.2-.74-4.99-1.15,1.42-2.82,2.53-5.04,3.64-7.25-.49-.54-.99-1.08-1.48-1.61-4.46,2.09-8.93,4.18-13.62,6.37-1.08-1.92-2.87-5.12-5.15-9.19,.47-.02,.86-.03,1.32-.05-4.6-.59-7.89-1.01-11.17-1.42-.93,.44-2.02,1.4-2.77,1.24-6.28-1.34-12.49-2.88-19.31-4.5,1.26-2.68,2.6-5.52,3.93-8.35-4.83,1.99-9.66,3.99-14.68,6.06-.62-1.81-1.04-3.04-1.74-5.09-1.66,2.72-2.75,4.49-3.85,6.29-2.89-1.68-5.43-3.16-8.55-4.98-.32,2.21-.53,3.64-.51,3.49-4.65,1.39-8.08,2.41-9.72,2.9-7.04-2.21-12.92-4.06-19.96-6.27-1.02,5.75-1.76,9.98-2.37,13.4-2.56-2.76-4.92-7.14-8.92-9.19-6.49-3.31-9.6,1.56-12.43,6.7-1.13-1.61-1.91-2.73-2.36-3.39-2.68,.76-4.83,1.38-6.97,1.99-.31-1.47-.63-2.95-1.13-5.32-3.37,2.26-6.33,4.25-9.43,6.33-.04-1.86-.07-3.47-.13-6.39-1.68,2.13-2.5,3.17-3.52,4.48-7.74-9.41-9.71,2.07-15.73,3.02-1.55-2.75-3.21-5.69-4.86-8.62l-1.15,.41c.08,1.24,.16,2.48,.24,3.71-.45,.19-.91,.39-1.36,.58-.93-1.44-1.86-2.87-3.14-4.86-2.54,.9-5.68,2.01-9.26,3.28,.29-1.91,.49-3.27,.7-4.63-.39-.24-.77-.47-1.16-.71-.8,1.14-1.6,2.28-3.07,4.37-1.48-2.74-2.39-4.43-3.69-6.84-1.8,3.88-2.8,6.04-3.8,8.19-1.66-1.25-3.31-2.5-5.16-3.9,2.14-1.04,3.44-1.68,5.19-2.53-5.5-2.68-9.62-3.5-11.15,2.95,.02-4.94,.05-9.87,.07-14.81-1.01-.06-2.01-.12-3.02-.18-.59,3.23-1.18,6.45-1.91,10.43-2.28-2.42-4.28-4.54-6.72-7.13-.88,1.87-1.53,3.25-2.64,5.61-3.52-4.53-6.38-8.21-9.65-12.42-3.28,3.19-6.15,5.97-9.35,9.09-.18-.08-1.54-.7-2.18-1-2.03,1.36-3.79,2.53-5.54,3.7-.33-.41-.65-.81-.98-1.22,4.89-2.74,3.09-7.15,2.22-10.34-.61-2.22-4.86-4.44-8.75-1.69,.96,1.23,1.74,2.24,3.55,4.56-5.76-.64-9.94-1.11-14.12-1.57,.15-.74,.31-1.48,.46-2.23,2.3,.48,4.59,.95,6.89,1.43,.35-.41,.7-.81,1.06-1.22-3.04-2.26-6.07-4.53-8.68-6.48-1.78,2.88-2.95,4.78-4.75,7.7-1.53-4.2-2.5-6.85-3.51-9.6,.96-.64,2.18-1.46,3.89-2.6-2.86-.93-4.92-1.6-6.94-2.26-.1-1.78-.2-3.43-.35-6.07-1.91,1.62-2.91,3.22-4.02,3.28-4.81,.25-9.65,.05-14.47,0-1.99-3.6-4.96-7.09-5.61-10.86-.91-5.21-4.21-5.74-8.98-5.45-.26,.02-.56-.45-.88-.72,.87-.82,1.74-1.64,4.49-4.23-8.93,4.33-3.51-3.11-8.08-2.96-1.03,2.16-2.18,4.56-3.56,7.44-.61-4.03-1.12-7.4-1.63-10.78-.66,.05-1.32,.09-1.97,.14-.2,2.47-.39,4.94-.6,7.55-1.61-.76-2.87-1.36-4.14-1.96,.21,.56,.41,1.11,.62,1.67-5.45,2.56-10.91,5.12-16.6,7.79-1.3-1.61-2.67-3.32-4.17-5.18-3.49,5.72-10.98,8.45-18.88,7.23-1.56,2.33-3.09,4.62-4.74,7.08-3.02-1.63-6.02-3.24-8.9-4.79-.98,1.66-1.81,3.08-2.65,4.5-.53-.16-1.05-.32-1.58-.49,.73-2.17,1.46-4.33,2.18-6.5-1.74-.6-3.47-1.19-5.17-1.78,1.1-2.68,2.02-4.92,3.5-8.52-7.43,3.83-13.5,5.7-21.23,2.35,4.48-1.76,7.99-3.13,13.36-5.24-5.23-.3-8.32-.48-11.17-.65,.8-3.3,1.56-6.39,2.31-9.48-.91-.67-1.83-1.33-2.74-2-3.4,2.57-6.79,5.14-10.19,7.71,.42,.46,.83,.92,1.25,1.37-4.02-.88-8.03-1.76-12.29-2.69-.15,1.93-.31,3.94-.47,5.96-3.89-5.6-9.78-7.34-16.66-7.17,.46,2.65,.85,4.89,.96,5.5-4.87,1.85-8.29,3.15-12.82,4.87,.86-1.35,1.41-2.22,1.57-2.46-1.89-2.71-3.1-4.45-4.92-7.06-4.75,.49-10.36,1.07-15.98,1.65-.47,.83-.94,1.66-1.4,2.49,1.74,.41,3.49,.83,5.24,1.24-.53,.6-1.07,1.2-1.6,1.8-7.95-5.2-15.35-12.22-26.16-6.18-.44-3.51-.82-6.58-1.2-9.64-.96-.14-1.92-.28-2.89-.42-1.87,4.35-3.75,8.69-5.79,13.44,0,0-2-.13-2-.26,0-2.42,.25-4.84,.45-7.38-5.24,.9-10.5,1.81-16.74,2.89,2.8-4.05,4.84-7.01,7.14-10.35-9.09-.82-12.97,3.75-16.44,9.02-2.88-4.11-5.21-9.87-7.16-9.78-7.57,.35-6.44-5.41-9.5-7.99-1.21-1.02-1.55-2.79-2.98-5.57-1.67,4.47-2.75,7.41-3.86,10.34-.62,1.63-1.29,3.24-1.93,4.86-1.76-1.18-3.52-2.35-4.3-2.88,4.28-6.1,7.98-11.39,11.68-16.67l-.7-1.42c-5.67,2.04-11.34,4.08-16.77,6.04,2.21-2.85,4.18-5.4,6.16-7.95-.57-.46-1.14-.92-1.71-1.39-1.38,1.56-2.77,3.12-4.2,4.74-1.74-2.77-3.1-4.93-4.71-7.48-5.98,5.95-.74,9.95,2.78,14.74-6.03-1.41-10.99-2.57-16.02-3.74-.22,1.62-.43,3.18-.8,5.91-5.04-4.54-9.15-8.24-14.55-13.1,.66,3.32,1,5.04,1.38,6.91-2.38,.54-4.26,.97-6.24,1.41-.89-2.2-1.6-3.95-2.38-5.89-1.69,.88-2.93,1.52-4.19,2.18-1.84-3.02-3.5-5.76-5.6-9.2-1.18,2.87-1.89,4.59-2.99,7.26-1.04-2.81-1.69-4.56-1.76-4.74,4.06-5.42,7.34-9.81,10.62-14.2-12.63,3.13-18.09,9.11-17.47,17.92-2.63-2.58-4.47-4.39-5.74-5.63,2.19-1.14,4-1.57,4.1-2.21,.55-3.32,.67-6.69,1.06-11.58-2.5,2.54-3.64,3.7-5,5.08-1.07-1.58-2.02-2.98-2.97-4.38,1.56-.78,2.78-1.39,5.86-2.94-4.79-.28-7.5-.43-10.74-.62,1.26,1.54,2.02,2.48,2.78,3.41-.33,.33-.66,.66-.99,.99-3.96-2.51-7.92-5.02-11.88-7.53-.09,.78-.18,1.56-.28,2.34-3.14,1.18-6.28,2.37-8.46,3.19,.97,3.02,1.9,5.88,2.82,8.74-3.84-6.31-8.75-3-13.39-1.14,1.61,.27,3.23,.54,4.45,.75-2.02,3.27-4.04,6.55-6.47,10.48-.6,.04-2.31,.15-4.01,.26-.24-.45-.48-.89-.72-1.34,1.46-.76,2.92-1.53,5.33-2.79-.79-2.16-1.89-5.16-3.01-8.22,1-.57,2.33-1.32,5.15-2.93-4.96-.29-8.1-.47-11.24-.65-.11,.36-.22,.71-.33,1.07,1.34,.86,2.68,1.72,4.03,2.57-.29,.53-.59,1.06-.88,1.59-5.35-2.53-10.7-5.06-16.07-7.6-.09,5.59-.17,9.95-.25,14.55-1.88-1-3.56-1.89-5.16-2.74,1.06-1.79,1.95-3.29,2.83-4.79-5.6,.08-10.93,.15-17.04,.24,0-.01-.44,1.63-1.06,3.88-1.87-1.74-3.32-3.07-4.03-3.74,1.15-3.15,2.02-5.5,3.12-8.5-2.46,.56-3.62,.82-5.12,1.16,1.49-2.16,2.73-3.96,4.15-6.04-5.08-1.79-9.81-3.47-13.33-4.71-3.13-2.7-5.64-4.85-8.22-7.07q-3.72,4.33,1.06,12.93c-4.99-4.91-10.27-8.66-17.41-3.3-.74-2.36-1.31-4.14-1.87-5.92-.61-.06-1.22-.12-1.84-.18-.95,3.07-1.9,6.14-2.9,9.34-5.06-1.36-10.94-5.71-14.32,2.22-4.07-3.47-8.03-6.85-12.48-10.65-1.44,1.99-3.33,4.61-5.45,7.56-.76-1.68-1.38-3.06-2.13-4.73-4.43,5.65-8.57,1.62-12.55,.57-.35-2.98-.65-5.62-.96-8.26-.51,0-1.02,0-1.53-.01-1.25,3.15-2.51,6.29-3.95,9.92,.25,.18,1.33,.96,2.96,2.13-2.66,.81-4.67,1.43-6.79,2.07-.34-2.42-.62-4.36-.9-6.3,7.04-3.22,7.12-3.75,2.22-15.86-.06-.14-.7-.11-1.4-.2-.22,1.26-.44,2.52-.66,3.81-2.34-.52-4.61-1.03-6.88-1.53l-1.15,1.76c3.49,2.12,6.99,4.23,10.23,6.2q-4.58,2.02-15.09,1.48c-.36-1.74-.73-3.47-1.09-5.21-.55-.1-1.1-.2-1.65-.3-1.7,2.88-3.41,5.76-4.63,7.82-3.9-1.26-7.51-2.42-11.7-3.77-.17,2.16-.31,3.92-.45,5.65-2.23-.95-4.06-1.73-6.28-2.67,.04,1.63,.06,2.47,.09,3.31-2.39-4.53-3.77-8.49,1.81-12.33,3.25-2.24,4.8-6.27,7.18-9.59-6.5,1.08-11.71,1.94-16.91,2.8-.77-4.1-10.87,.37-8.97-6.99-1.64,1.87-3.28,3.74-4.19,4.78-10.17-3.31-19.4-.78-28.08,1.26-3.44-1.96-6.62-3.76-10.52-5.98,.07,2.9,.11,4.5,.16,6.4-1.81-.55-3.05-.92-4-1.21-.91,1.96-1.78,3.85-2.65,5.74l-1.18-.34c-.19-1.49-.37-2.98-.68-5.44-1.55,1.98-2.34,3-3.1,3.98-1.88-1.36-3.51-2.54-4.22-3.05-2.79,5.96-5.44,11.63-8.24,17.63-1.47,.3-3.7,.76-6.89,1.42,2.81,1.96,4.62,3.23,6.93,4.84-2.21,.29-3.73,.5-5.33,.71,.38,1.44,.71,2.73,1.05,4.02-4.29-4.27-6.91-9.65-15.77-10.98,2.97,3.9,5.21,6.84,7.79,10.23-2.59-.03-4.6-.06-8-.1,2.63,1.73,4.1,2.7,6.48,4.27-4.6,.75-8.17,1.34-11.5,1.88-.68,7.88,7.43,8.69,12.66,11.86-1.53,.31-2.64,.21-3.68-.07-6.72-1.86-13.06-3.13-17.54,3.66-.61,.93-4.44,.72-6.63,.37-1.82-.28-3.43-1.54-5.59-2.59-2.11,3.34-4,6.31-5.97,9.42-.82-1.32-1.62-2.59-2.3-3.68-1.23,1.1-2.06,2.19-3.24,2.81-1.65,.88-3.77,1.17-5.3,2.15-1.76,1.14-3.09,2.76-5.13,4.65-.23-2.27-.4-3.96-.69-6.76-1.68,2.14-2.55,3.25-3.41,4.35-1.94-1.35-3.5-2.43-6.25-4.34-3.26,3.76-6.3,7.28-9.43,10.89-.75-1.53-1.56-3.18-2.98-6.07-.81,2.67-1.22,4.02-1.64,5.39-2.48-.59-4.78-1.13-7.09-1.68-.46,.48-.91,.97-1.37,1.45,2.93,2.44,5.85,4.88,9.22,7.69-4.59,3.28-8.03-3.73-12.74-1.88,.2,1.16,.4,2.38,.93,5.48-6.09-2.25-10.86-4-15.67-5.78-.85,2.93-1.58,5.44-2.55,8.8-1.98-1.63-3.11-2.56-4.29-3.53-1.34,.94-2.64,1.86-4.22,2.97-.36-2.73-.65-4.97-.94-7.21-.56-.19-1.11-.39-1.67-.58-2.67,3.75-5.34,7.51-8.44,11.86-2.71-2.46-5.19-4.7-8.23-7.46-1.91,3.79-3.87,7.7-6.03,12-1.71-1.88-3.19-3.51-5.17-5.68-.09,1.17-.17,2.12-.24,3.06v214.2c2.64,.04,5.28,.04,7.91,.1,72.86,1.5,145.43,6.46,217.63,14.87,66.47,7.74,132.85,16.1,199.26,24.23,68.22,8.36,136.39,17,204.64,25.12,102.38,12.19,204.67,25.13,307.29,35.68,87.21,8.97,174.74,16.09,262.31,22.12,171.98,11.84,344.5,18.02,515.85,36.37,16.05,1.72,32.11,3.31,48.17,4.96,15.03,.87,30.07,1.74,45.1,2.61,3.63-.14,7.26-.37,10.89-.39,31.93-.19,63.87-.09,95.8-.62,16.95-.28,34.08-1.49,47.42-12.05,15.02-11.9,29.57-24.23,44.32-36.37,11.26-9.27,21.29-19.21,24.72-32.79,.27-1.06,1.27-1.98,1.93-2.97,.12-1.55,.25-3.1,.37-4.65-15.54-7.21-30.82-14.81-46.78-21.43ZM159.48,1073.22c3.13-1.19,6.26-2.38,9.6-3.65,.77,4.46-3.52,6.53-9.6,3.65Zm599.82,77.47c-.54-.26-1.09-.52-1.63-.79-.24,1.33-.49,2.66-.89,4.88-1.14-2.71-1.88-4.48-2.68-6.39-1.68,.35-3.02,.63-4.36,.91l-.46-1.52c4.99-1.09,9.98-2.17,14.98-3.26,.32,.55,.64,1.11,.97,1.66l-5.91,4.49Zm304.32,41.9c-.14,.64-.45,2.09-.77,3.55-1.64-5.39-2.57-10.68-12.04-8.9,3.14-1.21,6.29-2.17,8.91-1.53,3.95,.96,7.52,3.03,11.69,4.81-2.32,.62-4.84,1.29-7.79,2.08Zm425.61,74.79c-4.18-4.77-8.37-9.55-12.74-14.54,4-2.24,7.56-4.23,10.71-5.99,1.04,6.9,2.03,13.45,3.02,19.99l-.99,.54Zm90.4,15.8c-.12-.44-.24-.89-.35-1.33,5.66-2.77,11.33-5.54,16.99-8.31,.04,2.7,.08,5.4,.12,7.92-5.76,.59-11.26,1.16-16.76,1.72Zm319.41,78.02c-1.09,.45-3.17,.86-3.64,.41-1.52-1.46-2.65-3.27-3.52-5.09-.11-.24,2.2-1.95,3.25-1.86,4.8,.42,9.55,1.24,14.03,1.87-4.19,1.96-7.1,3.43-10.13,4.68Z"/>
      <path class="cls-1" d="M1062.96,1174.68c6.17,3.88,12.34,7.76,18.51,11.64-.99-1.93-2.32-3.78-2.92-5.79-2.44-8.1-8.89-12.56-18.72-14.99,1.11,3.25,2.12,6.19,3.13,9.14Z"/>
      <path class="cls-1" d="M1473.83,1235.3c3.81-7.21,3.5-13.52-2.59-19.28-4.39,6.73-3.85,11.06,2.59,19.28Z"/>
      <path class="cls-1" d="M511.25,1074.9c.43,4.84,.86,9.67,1.29,14.51,.7-.05,1.4-.09,2.1-.14,3.19-5.11,3.3-9.98-1.19-14.52-.74,.05-1.47,.1-2.21,.15Z"/>
      <path class="cls-1" d="M1920.62,1342.14c-3.01,3.69-6.03,7.39-9.04,11.08,.95,.59,1.89,1.17,2.84,1.76,3.21-3.63,6.43-7.25,9.64-10.88-1.15-.66-2.29-1.31-3.44-1.97Z"/>
      <path class="cls-1" d="M54.71,1107.38c-2.36-3.97-4.73-7.94-7.09-11.9-1.09,.47-2.18,.93-3.26,1.4,2.36,4.01,4.71,8.01,7.07,12.02,1.1-.51,2.19-1.01,3.29-1.52Z"/>
      <path class="cls-1" d="M1639.78,1293.43c2.84-.63,5.68-1.26,8.52-1.9-3.8-5.58-9.42-5.03-16.67-3.45,3.3,2.16,5.73,3.75,8.16,5.34Z"/>
      <path class="cls-1" d="M1834.65,1323.24c1.4,4.21,2.8,8.42,4.19,12.63,.68-.16,1.37-.33,2.05-.49,2.25-5.06,.61-9.22-4.12-12.64-.71,.17-1.41,.34-2.12,.5Z"/>
      <path class="cls-1" d="M1932.56,1356.99c.99-.62,2.94-1.52,2.82-1.81-1.47-3.59-3.25-7.08-4.94-10.6-1.16,.4-2.31,.8-3.47,1.2,1.93,3.8,3.86,7.61,5.79,11.42,0,0-.2-.2-.2-.2Z"/>
      <path class="cls-1" d="M885.14,1168.05c.33-4.15,.66-8.3,.99-12.45-.91-.09-1.83-.17-2.74-.26-.61,4.19-1.21,8.38-1.82,12.58,1.19,.05,2.38,.09,3.57,.14Z"/>
      <path class="cls-1" d="M810.03,1144.94c3.11,.04,6.22,.08,9.33,.13,.12-.32,.23-.65,.35-.97-1.13-.61-2.26-1.21-3.39-1.82,.79-1.49,1.58-2.99,2.58-4.86-7-.22-8,3.62-8.71,7.69,0,0-.16-.16-.16-.16Z"/>
      <path class="cls-1" d="M1318.91,1237.46c4.07-3.31,3.35-6.3-4.15-10.43,1.45,3.54,2.9,7.08,4.35,10.63,0,0-.21-.2-.21-.2Z"/>
      <path class="cls-1" d="M1164.62,1210.18c-.49-3.47-.99-6.94-1.48-10.4-1.03,.09-2.07,.17-3.1,.26,.39,3.53,.77,7.06,1.16,10.6,1.14-.15,2.28-.3,3.42-.45Z"/>
      <path class="cls-1" d="M1186.87,1204.23c-1.31,3.37-2.61,6.73-3.92,10.1,.92,.28,1.83,.57,2.75,.85,1.52-3.34,3.03-6.68,4.55-10.02-1.13-.31-2.25-.62-3.38-.93Z"/>
      <path class="cls-1" d="M943.12,1174.98c-.96,3.29-1.92,6.58-2.88,9.87,.98,.21,1.95,.42,2.93,.63,1.03-3.27,2.05-6.55,3.08-9.82-1.04-.23-2.08-.45-3.13-.68Z"/>
      <path class="cls-1" d="M291.17,1044.71c1.75-3.04,3.5-6.09,5.25-9.13-.94-.4-1.88-.8-2.83-1.19-1.81,3.08-3.62,6.15-5.43,9.23,1,.36,2.01,.73,3.01,1.09Z"/>
      <path class="cls-1" d="M427.81,1064.25c3.56,1.36,7.11,2.72,10.67,4.09,.42-.73,.83-1.46,1.25-2.18-3.48-1.52-6.96-3.04-10.44-4.57-.49,.89-.98,1.78-1.47,2.66Z"/>
    </g>
    <polygon class="cls-1" points="3862.81 1272.73 3833.56 1288.26 3475 1271.16 2954.74 1357.1 2171.81 1438.8 1575.58 1395.79 1595.68 1408.92 676.2 1236.66 257.04 1271.54 .5 1200.24 .5 2388.63 3862.81 2388.63 3862.81 1272.73"/>
  </g>
</svg>